# xmcd
#
# Track frame offsets:
#	150
#	19536
#	32675
#	49535
#	61441
#	72687
#	86573
#	107568
#	122038
#	140587
#	156150
#	176317
#	188328
#	200268
#	214373
#	224352
#	241404
#	250484
#	262085
#	281174
#
# Disc length: 3997 seconds
#
# Revision: 1
# Processed by: cddbd v1.5.2PL0 Copyright (c) Steve Scherf et al.
# Submitted via: audiograbber 1.83.01
#
DISCID=2c0f9b14
DTITLE=KAREL CERNOCH - SRDCOVE TRUMFY
DYEAR=2005
DGENRE=
TTITLE0=VIC NEZ PRITEL
TTITLE1=I BLAZEN SNAD TOUZI
TTITLE2=ARIE MESICE
TTITLE3=SLECNA SEN
TTITLE4=LASKY JDOU
TTITLE5=PAR SLOV, PAR KROKU, PAR GEST
TTITLE6=MUJ IDEAL
TTITLE7=LASKA PRY
TTITLE8=ZIVA LASKA
TTITLE9=VE DVOU SE TO LEPE TAHNE
TTITLE10=TECH PAR DNU
TTITLE11=KAZDY DEN BY PRO NAS MEL BYT SVATKEM
TTITLE12=HADKY
TTITLE13=O, MONTE CHRISTO
TTITLE14=V TOM
TTITLE15=TANCIS SAMA
TTITLE16=ZEJTRA UZ TI SBOHEM DAM
TTITLE17=DOTYKAT SE HVEZD
TTITLE18=VIC NEZ PRITEL
TTITLE19=BYLO TO JEN ZDANI
EXTD=
EXTT0=
EXTT1=
EXTT2=
EXTT3=
EXTT4=
EXTT5=
EXTT6=
EXTT7=
EXTT8=
EXTT9=
EXTT10=
EXTT11=
EXTT12=
EXTT13=
EXTT14=
EXTT15=
EXTT16=
EXTT17=
EXTT18=
EXTT19=
PLAYORDER=
